<svg xmlns="http://www.w3.org/2000/svg" width="52" height="30" fill="none"><path fill="#fff" d="M47.532 0H4.477C3.667 0 3.01.672 3.01 1.5v27c0 .828.657 1.5 1.467 1.5h43.055c.81 0 1.468-.672 1.468-1.5v-27c0-.828-.657-1.5-1.468-1.5Z"/><mask id="a" width="46" height="30" x="3" y="0" maskUnits="userSpaceOnUse" style="mask-type:alpha"><path fill="#F47922" d="M47.493 0H4.517C3.685 0 3 .7 3 1.55v26.9c0 .87.685 1.55 1.517 1.55h42.976c.832 0 1.507-.69 1.507-1.54V1.55C49 .69 48.325 0 47.493 0Zm-1.067 15c0 8-6.31 14.49-14.1 14.49H4.516c-.557 0-1.007-.47-1.007-1.03V1.55c0-.57.45-1.03 1.008-1.03h27.81c7.788 0 14.1 6.48 14.1 14.48Z"/></mask><g mask="url(#a)"><path fill="#DF5026" d="M35.77-23-11.15 4.81 15.937 53l46.92-27.83L35.78-23h-.01Z"/><path fill="#DF5126" d="m36.309-22.05-46.92 27.82 27.085 48.2 46.92-27.83-27.085-48.2v.01Z"/><path fill="#E05226" d="m36.847-21.1-46.92 27.82 27.085 48.2 46.92-27.83-27.085-48.2v.01Z"/><path fill="#E05226" d="M37.385-20.15-9.535 7.67l27.085 48.2 46.92-27.83-27.085-48.2v.01Z"/><path fill="#E05326" d="M37.913-19.2-9.007 8.63l27.096 48.2L64.999 29 37.913-19.2Z"/><path fill="#E15426" d="M38.452-18.24-8.468 9.58l27.095 48.2 46.9-27.84-27.085-48.2.01.02Z"/><path fill="#E15526" d="M38.99-17.29-7.93 10.54l27.085 48.19 46.92-27.82-27.085-48.2Z"/><path fill="#E25625" d="M39.528-16.34-7.392 11.5l27.085 48.2 46.92-27.83-27.085-48.2v-.01Z"/><path fill="#E25725" d="m40.056-15.38-46.92 27.82 27.086 48.2 46.92-27.84-27.086-48.2v.02Z"/><path fill="#E25825" d="m40.595-14.43-46.92 27.82 27.085 48.2 46.92-27.83-27.085-48.2v.01Z"/><path fill="#E35825" d="m41.133-13.47-46.92 27.82 27.085 48.2 46.92-27.83-27.085-48.2v.01Z"/><path fill="#E35925" d="M41.67-12.52-5.248 15.3l27.085 48.2 46.92-27.84-27.085-48.2v.02Z"/><path fill="#E45A25" d="M42.2-11.57-4.73 16.25l27.085 48.2 46.92-27.83-27.085-48.2.01.01Z"/><path fill="#E45B25" d="m42.728-10.62-46.9 27.82 27.085 48.2 46.92-27.83-27.086-48.2-.02.01Z"/><path fill="#E55C25" d="m43.276-9.66-46.92 27.82 27.085 48.2 46.92-27.83-27.085-48.2v.01Z"/><path fill="#E55D25" d="m43.804-8.71-46.9 27.82 27.085 48.2 46.92-27.83L43.814-8.7l-.01-.01Z"/><path fill="#E55E25" d="m44.342-7.76-46.91 27.83 27.085 48.2 46.92-27.83-27.095-48.2Z"/><path fill="#E65E25" d="M44.88-6.8-2.04 21.02l27.086 48.2 46.92-27.83L44.88-6.81v.01Z"/><path fill="#E65F25" d="m45.419-5.85-46.92 27.83 27.085 48.19 46.92-27.83L45.419-5.85Z"/><path fill="#E76025" d="M45.957-4.9-.963 22.93l27.085 48.19 46.92-27.82L45.957-4.9Z"/><path fill="#E76124" d="M46.485-3.95-.425 23.88l27.085 48.2 46.92-27.83-27.095-48.2Z"/><path fill="#E76224" d="M46.652-3.65-.258 24.17l27.085 48.2 46.92-27.84L46.642-3.66l.01.01Z"/><path fill="#E76224" d="M46.818-3.36-.102 24.46l27.085 48.2 46.92-27.83-27.085-48.2v.01Z"/><path fill="#E86324" d="M46.974-3.07.065 24.76l27.086 48.2 46.92-27.83-27.095-48.2Z"/><path fill="#E86424" d="M47.14-2.77.23 25.05l27.086 48.2 46.92-27.83L47.13-2.78l.01.01Z"/><path fill="#E86524" d="M47.307-2.48.387 25.34l27.096 48.2 46.92-27.84L47.306-2.48Z"/><path fill="#E86624" d="M47.474-2.19.553 25.64l27.095 48.2L74.559 46 47.474-2.2v.01Z"/><path fill="#E86724" d="M47.64-1.9.72 25.94l27.095 48.2 46.91-27.84L47.64-1.9Z"/><path fill="#E96724" d="M47.816-1.6.876 26.22l27.096 48.2 46.91-27.83L47.816-1.6Z"/><path fill="#E96824" d="M47.972-1.3 1.052 26.52l27.086 48.2 46.92-27.83-27.086-48.2v.01Z"/><path fill="#E96924" d="M48.139-1.02 1.219 26.81 28.304 75l46.92-27.83L48.14-1.03v.01Z"/><path fill="#E96A24" d="M48.305-.72 1.366 27.1l27.095 48.2 46.91-27.83L48.305-.72Z"/><path fill="#E96B24" d="M48.462-.43 1.542 27.4l27.095 48.2 46.91-27.83L48.462-.43Z"/><path fill="#E96B24" d="M48.628-.13 1.708 27.69l27.096 48.2 46.9-27.84L48.628-.14v.01Z"/><path fill="#EA6C24" d="M48.795.16 1.875 27.98l27.095 48.2 46.91-27.83L48.795.15v.01Z"/><path fill="#EA6D24" d="M48.96.45 2.042 28.28l27.085 48.19 46.92-27.82L48.961.45Z"/><path fill="#EA6E24" d="M49.127.74 2.207 28.57l27.086 48.2 46.92-27.83L49.127.74Z"/><path fill="#EA6E24" d="m49.284 1.04-46.9 27.82 27.085 48.2 46.92-27.84L49.294 1.03l-.01.01Z"/><path fill="#EA6F24" d="M49.45 1.33 2.53 29.16l27.086 48.19 46.92-27.82L49.45 1.33Z"/><path fill="#EB7024" d="M49.617 1.63 2.697 29.45l27.085 48.2 46.92-27.83-27.085-48.2v.01Z"/><path fill="#EB7124" d="m49.773 1.92-46.9 27.82 27.085 48.2 46.92-27.84L49.783 1.91l-.01.01Z"/><path fill="#EB7124" d="M49.95 2.21 3.03 30.04l27.075 48.19 46.93-27.83L49.948 2.21Z"/><path fill="#EB7224" d="M50.115 2.5 3.195 30.33l27.086 48.2 46.92-27.83L50.116 2.5Z"/><path fill="#EB7324" d="M50.282 2.8 3.362 30.62l27.085 48.2 46.92-27.84L50.282 2.79v.01Z"/><path fill="#EB7424" d="M50.448 3.09 3.528 30.91l27.086 48.2 46.92-27.83L50.448 3.1v-.01Z"/><path fill="#EC7424" d="M50.605 3.38 3.685 31.21 30.79 79.4l46.92-27.83-27.095-48.2-.01.01Z"/><path fill="#EC7524" d="M50.771 3.68 3.851 31.5l27.086 48.2 46.92-27.83L50.77 3.67v.01Z"/><path fill="#EC7624" d="M50.938 3.97 4.017 31.8l27.085 48.19 46.92-27.83L50.938 3.97Z"/><path fill="#EC7724" d="M51.104 4.26 4.174 32.1 31.26 80.3l46.92-27.83-27.085-48.2.01-.01Z"/><path fill="#EC7724" d="M51.27 4.56 4.35 32.38l27.086 48.2 46.92-27.83L51.27 4.55v.01Z"/><path fill="#EC7824" d="M51.437 4.85 4.517 32.67l27.085 48.2 46.92-27.83-27.086-48.2v.01Z"/><path fill="#ED7924" d="M51.593 5.14 4.683 32.97l27.085 48.19 46.92-27.82-27.095-48.2Z"/><path fill="#ED7924" d="M51.76 5.44 4.86 33.26l27.085 48.2 46.92-27.83-27.096-48.2-.01.01Z"/><path fill="#ED7A24" d="M51.926 5.73 5.016 33.55 32.1 81.75l46.92-27.83-27.095-48.2v.01Z"/><path fill="#ED7B24" d="M52.092 6.02 5.172 33.85l27.086 48.2 46.92-27.83-27.086-48.2Z"/><path fill="#ED7C23" d="M52.249 6.32 5.329 34.14l27.095 48.2 46.92-27.84L52.249 6.31v.01Z"/><path fill="#EE7C23" d="M52.415 6.6 5.495 34.44l27.095 48.2L79.51 54.8 52.415 6.6Z"/><path fill="#EE7D23" d="M52.581 6.9 5.661 34.73l27.096 48.19 46.91-27.82L52.58 6.9Z"/><path fill="#EE7E23" d="M52.748 7.2 5.838 35.01l27.095 48.2 46.91-27.83-27.085-48.2-.01.02Z"/><path fill="#EE7E23" d="m52.904 7.48-46.9 27.83 27.085 48.2 46.92-27.84L52.914 7.48h-.01Z"/><path fill="#EE7F23" d="M53.08 7.78 6.16 35.6l27.076 48.2 46.92-27.83-27.085-48.2.01.01Z"/><path fill="#EF8023" d="M53.237 8.08 6.327 35.9l27.095 48.2 46.92-27.83-27.095-48.2-.01.01Z"/><path fill="#EF8123" d="M53.403 8.37 6.483 36.19l27.096 48.2 46.92-27.83-27.105-48.2.01.01Z"/><path fill="#EF8123" d="M53.57 8.66 6.65 36.5l27.095 48.19 46.91-27.82L53.57 8.67v-.01Z"/><path fill="#EF8223" d="M53.736 8.95 6.816 36.78l27.095 48.2 46.91-27.83-27.085-48.2Z"/><path fill="#EF8323" d="M53.902 9.25 6.982 37.07l27.096 48.2 46.91-27.83-27.086-48.2v.01Z"/><path fill="#F08323" d="M54.069 9.54 7.149 37.36l27.095 48.2 46.91-27.83L54.079 9.54h-.01Z"/><path fill="#F08423" d="M54.235 9.83 7.315 37.66l27.086 48.2 46.92-27.83-27.086-48.2Z"/><path fill="#F08523" d="M54.401 10.13 7.481 37.95l27.086 48.2 46.92-27.83-27.085-48.2v.01Z"/><path fill="#F08623" d="M54.568 10.42 7.638 38.25l27.086 48.19 46.93-27.84-27.096-48.18h.01Z"/><path fill="#F08623" d="M54.724 10.71 7.814 38.54 34.9 86.74 81.82 58.9 54.723 10.7v.01Z"/><path fill="#F18723" d="M54.89 11 7.972 38.84l27.085 48.2 46.92-27.84L54.891 11Z"/><path fill="#F18823" d="M55.057 11.3 8.137 39.12l27.085 48.2 46.92-27.83L55.057 11.3Z"/><path fill="#F18823" d="M55.223 11.6 8.303 39.41 35.39 87.6l46.92-27.82-27.086-48.2v.02Z"/><path fill="#F18923" d="M55.38 11.88 8.48 39.71 35.555 87.9l46.92-27.83L55.38 11.88Z"/><path fill="#F18A23" d="M55.546 12.17 8.626 40l27.096 48.2 46.92-27.83-27.096-48.2Z"/><path fill="#F28A23" d="M55.713 12.47 8.793 40.29l27.095 48.2 46.92-27.83-27.095-48.2v.01Z"/><path fill="#F28B23" d="M55.879 12.76 8.959 40.6l27.085 48.19 46.92-27.83L55.88 12.77v-.01Z"/><path fill="#F28C22" d="m56.036 13.06-46.9 27.82 27.085 48.2 46.92-27.83-27.096-48.19h-.01Z"/><path fill="#F28D22" d="M56.212 13.35 9.292 41.18l27.085 48.2 46.92-27.83-27.085-48.2Z"/><path fill="#F38D22" d="M56.378 13.65 9.458 41.47l27.086 48.2 46.92-27.83-27.086-48.2v.01Z"/><path fill="#F38E22" d="M56.544 13.94 9.624 41.76l27.086 48.2 46.92-27.83-27.086-48.2v.01Z"/><path fill="#F38F22" d="M56.71 14.23 9.79 42.06l27.086 48.19 46.92-27.83-27.085-48.19Z"/><path fill="#F38F22" d="M56.867 14.52 9.957 42.35l27.086 48.2 46.92-27.83-27.096-48.2Z"/><path fill="#F39022" d="m57.034 14.82-46.92 27.82 27.085 48.2L84.12 63 57.034 14.82Z"/><path fill="#F49122" d="M57.2 15.11 10.28 42.94l27.085 48.19 46.92-27.82L57.21 15.1l-.01.01Z"/><path fill="#F49122" d="m57.366 15.4-46.93 27.84 27.086 48.2 46.93-27.84-27.086-48.2Z"/><path fill="#F49222" d="m57.523 15.7-46.91 27.82 27.085 48.2 46.91-27.83L57.523 15.7Z"/><path fill="#F49322" d="M57.69 15.99 10.77 43.8 37.854 92l46.92-27.83-27.086-48.2v.02Z"/><path fill="#F59422" d="M57.856 16.28 10.926 44.1l27.105 48.2 46.92-27.83-27.086-48.2-.01.01Z"/><path fill="#F59422" d="M58.022 16.57 11.102 44.4l27.085 48.19 46.92-27.83-27.085-48.19Z"/><path fill="#F59522" d="M58.188 16.86 11.268 44.7l27.086 48.2 46.92-27.83-27.086-48.2v-.01Z"/><path fill="#F59621" d="m58.345 17.16-46.91 27.82 27.085 48.2 46.92-27.83-27.095-48.19Z"/><path fill="#F69721" d="m58.511 17.45-46.9 27.83 27.085 48.2 46.92-27.83-27.095-48.2h-.01Z"/><path fill="#F69721" d="m58.678 17.75-46.92 27.83 27.095 48.19 46.92-27.83-27.095-48.19Z"/><path fill="#F69821" d="m58.844 18.04-46.92 27.83 27.095 48.2 46.91-27.83-27.085-48.2Z"/><path fill="#F69921" d="M59.01 18.34 12.1 46.16l27.095 48.2 46.91-27.83-27.085-48.2-.01.01Z"/><path fill="#F79A21" d="m59.177 18.63-46.92 27.82 27.085 48.2 46.93-27.83-27.086-48.2-.01.01Z"/><path fill="#F79A21" d="m59.343 18.92-46.92 27.83 27.085 48.19 46.92-27.82-27.085-48.2Z"/><path fill="#F79B21" d="M59.5 19.22 12.59 47.04l27.085 48.2 46.92-27.84-27.096-48.2v.02Z"/><path fill="#F89C21" d="m59.666 19.51-46.91 27.82 27.085 48.2 46.92-27.83-27.105-48.19h.01Z"/><path fill="#F89D21" d="m59.832 19.8-46.91 27.83 27.085 48.19L86.927 68 59.832 19.8Z"/><path fill="#F89D20" d="m59.998 20.1-46.91 27.82 27.086 48.2 46.92-27.83-27.095-48.2v.01Z"/><path fill="#F89E20" d="m60.155 20.38-46.9 27.83 27.085 48.2 46.91-27.84-27.085-48.2-.01.01Z"/><path fill="#F99F20" d="M60.321 20.68 13.411 48.5l27.086 48.2 46.92-27.83-27.096-48.2v.01Z"/><path fill="#F9A020" d="m60.488 20.97-46.91 27.82L40.663 97l46.92-27.83-27.095-48.19v-.01Z"/><path fill="#F9A020" d="M60.654 21.26 13.744 49.1 40.83 97.29l46.91-27.83-27.095-48.2h.01Z"/></g><path fill="#231F20" d="M6.895 11.69H5.133v6.34h1.762c.426.031.855-.027 1.259-.172a3.111 3.111 0 0 0 1.088-.67 3.19 3.19 0 0 0 .736-1.058c.172-.4.261-.833.263-1.27 0-1.86-1.37-3.16-3.337-3.16l-.01-.01Zm1.418 4.76c-.381.35-.88.5-1.663.5h-.313v-4.2h.323c.782 0 1.252.15 1.653.52.214.203.385.45.502.723a2.21 2.21 0 0 1-.502 2.457Zm3.69-4.76h-1.224v6.34h1.204v-6.34h.02Zm2.954 2.43c-.724-.28-.939-.45-.939-.8 0-.4.391-.7.91-.7.362 0 .656.15.979.51l.626-.84a2.677 2.677 0 0 0-1.82-.7c-1.106 0-1.938.77-1.938 1.81 0 .88.392 1.33 1.527 1.74.47.17.714.29.841.36.235.16.362.39.362.66 0 .5-.4.9-.949.9-.577 0-1.037-.3-1.32-.85l-.784.77c.558.83 1.233 1.2 2.153 1.2 1.253 0 2.143-.85 2.143-2.08 0-1-.41-1.46-1.79-1.97v-.01Zm2.173.74c-.004.438.078.873.241 1.279.163.405.404.773.709 1.081.305.309.667.552 1.065.715a3.15 3.15 0 0 0 1.253.235c.519 0 .969-.1 1.517-.37v-1.45c-.49.5-.91.7-1.468.7-1.213 0-2.075-.9-2.075-2.2a2.143 2.143 0 0 1 .567-1.52c.189-.202.415-.363.666-.475.25-.112.52-.171.793-.175.577 0 1.018.21 1.517.71v-1.45a3.201 3.201 0 0 0-3.209.079 3.298 3.298 0 0 0-1.16 1.212 3.387 3.387 0 0 0-.426 1.639l.01-.01Zm14.384 1.08-1.663-4.25h-1.312l2.642 6.5h.646l2.681-6.5h-1.311l-1.683 4.25Zm3.542 2.09h3.425v-1.08h-2.212v-1.7h2.144v-1.08H36.27v-1.4h2.23v-1.08h-3.434v6.34h-.01Zm8.22-4.47c0-1.2-.803-1.87-2.192-1.87h-1.8v6.34h1.213v-2.55h.156l1.674 2.55h1.497l-1.957-2.67c.91-.2 1.409-.83 1.409-1.8Zm-2.427 1.04h-.352v-1.92h.371c.754 0 1.165.32 1.165.94 0 .62-.411.98-1.184.98Zm3.395-2.58c0-.11-.078-.17-.205-.17h-.176v.56h.127v-.22l.157.22h.156l-.176-.24c.078-.02.117-.07.117-.15Zm-.234.08h-.02v-.15h.03c.058 0 .097.02.097.07s-.039.08-.098.08h-.01Z"/><path fill="#231F20" d="M44.059 11.64a.47.47 0 0 0-.383.115.488.488 0 0 0-.165.37.498.498 0 0 0 .165.37.476.476 0 0 0 .383.115c.264 0 .47-.22.47-.49a.496.496 0 0 0-.141-.337.475.475 0 0 0-.33-.143Zm0 .88a.387.387 0 0 1-.27-.12.405.405 0 0 1-.112-.28c0-.22.176-.4.391-.4.1.005.195.05.265.124a.405.405 0 0 1-.004.555.388.388 0 0 1-.27.121Z"/><path fill="#F47922" d="M28.882 14.85c0 .891-.347 1.746-.963 2.376a3.253 3.253 0 0 1-2.325.984 3.253 3.253 0 0 1-2.325-.984 3.398 3.398 0 0 1-.963-2.376c0-.891.346-1.746.963-2.376a3.253 3.253 0 0 1 2.325-.984c.872 0 1.708.354 2.325.984.616.63.963 1.485.963 2.376Z"/></svg>