<svg xmlns="http://www.w3.org/2000/svg" width="52" height="30" fill="none"><path fill="#FF5F00" d="M30.76 6.352H21.24v17.296h9.518V6.352Z"/><path fill="#EB001B" d="M21.846 15a11.083 11.083 0 0 1 1.091-4.808A10.96 10.96 0 0 1 26 6.352a10.772 10.772 0 0 0-11.476-1.246 10.92 10.92 0 0 0-4.467 4.058A11.091 11.091 0 0 0 8.4 15c0 2.064.574 4.086 1.657 5.836a10.92 10.92 0 0 0 4.467 4.058A10.773 10.773 0 0 0 26 23.648a10.96 10.96 0 0 1-3.063-3.84A11.082 11.082 0 0 1 21.846 15Z"/><path fill="#F79E1B" d="M43.6 15a11.09 11.09 0 0 1-1.657 5.836 10.92 10.92 0 0 1-4.466 4.058A10.772 10.772 0 0 1 26 23.648a10.979 10.979 0 0 0 3.061-3.84 11.104 11.104 0 0 0 0-9.615 10.979 10.979 0 0 0-3.06-3.841 10.772 10.772 0 0 1 11.476-1.246 10.92 10.92 0 0 1 4.466 4.058A11.09 11.09 0 0 1 43.6 15ZM42.562 21.816v-.354h.141v-.072h-.36v.072h.142v.354h.077Zm.698 0v-.427h-.11l-.127.294-.127-.294h-.11v.427h.078v-.322l.119.278h.08l.12-.278v.322h.077Z"/></svg>