<svg xmlns="http://www.w3.org/2000/svg" width="52" height="30" fill="none"><g clip-path="url(#a)"><path fill="#fff" d="M31.365 9c-2.978 0-5.652 1.483-5.652 4.206 0 3.135 4.723 3.35 4.723 4.91 0 .657-.8 1.253-2.145 1.253-1.922 0-3.363-.825-3.363-.825l-.608 2.753s1.649.703 3.858.703c3.267 0 5.829-1.545 5.829-4.328 0-3.304-4.74-3.518-4.74-4.97 0-.52.657-1.087 2.002-1.087 1.52 0 2.77.597 2.77.597l.608-2.661C34.631 9.55 33.27 9 31.365 9ZM4.08 9.199 4 9.596s1.249.215 2.386.658c1.457.505 1.553.795 1.81 1.698l2.673 9.834h3.587l5.492-12.587h-3.57l-3.54 8.565-1.44-7.265c-.128-.826-.801-1.3-1.634-1.3H4.08Zm17.31 0-2.803 12.587h3.41l2.787-12.587h-3.395Zm18.99 0c-.817 0-1.25.413-1.57 1.147l-4.995 11.44h3.57l.689-1.912h4.355l.417 1.912H46L43.262 9.199H40.38Zm.464 3.41 1.057 4.726h-2.834l1.777-4.726Z"/></g><defs><clipPath id="a"><path fill="#fff" d="M4 9h42v13H4z"/></clipPath></defs></svg>