<svg viewBox="0 0 64 64" xmlns="http://www.w3.org/2000/svg"><g id="handycam"><path d="m22 47-7.73 6.33a2 2 0 0 1 -3.27-1.55v-4.78a6.05 6.05 0 0 1 -6-6v-16a5.94 5.94 0 0 1 5.86-6h31.28a5.94 5.94 0 0 1 5.86 6v16a5.94 5.94 0 0 1 -5.86 6z" fill="#b5b5b5"/><path d="m42 40 7.73 6.33a2 2 0 0 0 3.27-1.55v-4.78a6.05 6.05 0 0 0 6-6v-16a5.94 5.94 0 0 0 -5.86-6h-31.28a5.94 5.94 0 0 0 -5.86 6v16a5.94 5.94 0 0 0 5.86 6z" fill="#fff"/><path d="m30.09 31.94a9.5 9.5 0 0 1 12.16-14.17 9.45 9.45 0 0 1 4.3 5.37 9.52 9.52 0 0 1 -7.86 12.28 9.51 9.51 0 0 1 -8.6-3.48z" fill="#ffbc00"/><path d="m51 47.78a3 3 0 0 1 -1.89-.68l-7.73-6.33a1 1 0 1 1 1.26-1.54l7.74 6.32a1 1 0 0 0 1.62-.77v-4.78a1 1 0 0 1 1-1 5.07 5.07 0 0 0 5-5v-16a4.94 4.94 0 0 0 -4.86-5h-31.28a4.94 4.94 0 0 0 -4.86 5v16a4.94 4.94 0 0 0 4.86 5h14.66a1 1 0 1 1 0 2h-14.66a6.94 6.94 0 0 1 -6.86-7v-16a6.94 6.94 0 0 1 6.86-7h31.28a6.94 6.94 0 0 1 6.86 7v16a7 7 0 0 1 -6 6.93v3.85a3 3 0 0 1 -1.72 2.71 2.93 2.93 0 0 1 -1.28.29z"/><path d="m13 54.78a2.93 2.93 0 0 1 -1.29-.29 3 3 0 0 1 -1.71-2.71v-3.85a7 7 0 0 1 -6-6.93v-16a6.94 6.94 0 0 1 6.86-7h1.14a1 1 0 0 1 0 2h-1.14a4.94 4.94 0 0 0 -4.86 5v16a5.07 5.07 0 0 0 5 5 1 1 0 0 1 1 1v4.78a1 1 0 0 0 .57.9 1 1 0 0 0 1.06-.13l7.74-6.32a1 1 0 0 1 .63-.23h20.14a5.52 5.52 0 0 0 .71 0 1 1 0 1 1 .3 2 6.77 6.77 0 0 1 -1 .08h-19.79l-7.46 6.02a3 3 0 0 1 -1.9.68z"/><path d="m36.23 30.17h-3.8a1 1 0 0 1 -1-1v-3.17a1 1 0 0 1 1-1h2.8v-1.17h-2.8a1 1 0 0 1 0-2h3.8a1 1 0 0 1 1 1v3.17a1 1 0 0 1 -1 1h-2.8v1.17h2.8a1 1 0 1 1 0 2z"/><path d="m42.57 30.17a1 1 0 0 1 -1-1v-2.17h-2.8a1 1 0 0 1 -1-1v-3.17a1 1 0 0 1 2 0v2.17h1.8v-2.17a1 1 0 0 1 2 0v6.34a1 1 0 0 1 -1 1z"/><path d="m37.5 36.5a10.5 10.5 0 1 1 5.25-19.59 1 1 0 0 1 .37 1.36 1 1 0 0 1 -1.37.37 8.49 8.49 0 1 0 3.86 4.81 1 1 0 0 1 1.91-.6 10.51 10.51 0 0 1 -10 13.65z"/></g></svg>