<svg id="Capa_1" enable-background="new 0 0 511.988 511.988" height="512" viewBox="0 0 511.988 511.988" width="512" xmlns="http://www.w3.org/2000/svg"><g><path d="m478.82 226.403-21.883-153.658c-1.308-9.182-8.522-16.397-17.704-17.704l-153.658-21.883c-6.495-.925-13.046 1.261-17.685 5.899l-254.499 254.499c-7.867 7.867-7.867 20.621 0 28.487l176.543 176.543c7.867 7.867 20.621 7.867 28.487 0l254.499-254.499c4.639-4.637 6.825-11.189 5.9-17.684zm-77.871-94.666c-11.437 0-20.708-9.271-20.708-20.708s9.271-20.708 20.708-20.708 20.708 9.271 20.708 20.708-9.271 20.708-20.708 20.708z" fill="#fee45a"/><path d="m478.82 226.404-21.883-153.659c-1.308-9.182-8.522-16.396-17.704-17.704l-22.446-3.196c.056.298.105.598.148.9l21.882 153.659c.925 6.495-1.26 13.046-5.899 17.685l-229.065 229.065c-11.806 11.806-27.565 17.251-43.017 16.335l29.098 29.098c7.867 7.867 20.621 7.867 28.487 0l254.499-254.499c4.639-4.638 6.825-11.19 5.9-17.684z" fill="#fedf30"/><path d="m505.497 6.482c-7.886-7.884-21.21-8.6-37.515-2.017-14.251 5.756-29.774 16.601-43.711 30.537-2.957 2.958-5.801 6.015-8.49 9.124l-129.15-18.393c-8.78-1.253-17.772 1.747-24.046 8.021l-103.491 103.492c-2.929 2.93-2.929 7.678 0 10.607 2.93 2.928 7.678 2.926 10.607 0l103.493-103.491c2.954-2.954 7.189-4.365 11.323-3.778 22.922 3.264 134.877 19.208 153.659 21.883 5.843.832 10.505 5.494 11.337 11.337l2.3 16.153c-8.489 6.557-16.556 11.2-23.53 14.091-3.115-12.188-14.188-21.227-27.334-21.227-15.555 0-28.209 12.654-28.209 28.208 0 15.555 12.654 28.209 28.209 28.209 12.335 0 22.845-7.958 26.668-19.01 8.554-2.716 17.68-7.479 26.577-13.555l17.201 120.789c.589 4.137-.823 8.369-3.778 11.323l-254.499 254.5c-2.388 2.388-5.562 3.703-8.939 3.703s-6.553-1.315-8.94-3.704l-176.544-176.543c-4.93-4.931-4.93-12.952 0-17.881l126.291-126.29c2.929-2.93 2.929-7.678 0-10.607-2.93-2.928-7.678-2.928-10.607 0l-126.292 126.29c-10.777 10.778-10.777 28.315 0 39.095l176.543 176.543c5.222 5.221 12.164 8.097 19.548 8.097s14.326-2.876 19.547-8.097l254.498-254.499c6.273-6.272 9.272-15.262 8.021-24.046l-18.395-129.178c7.216-6.2 13.731-12.904 19.355-19.628 2.657-3.177 2.236-7.907-.941-10.564s-7.907-2.236-10.564.941c-3.125 3.736-6.58 7.494-10.412 11.255l-.923-6.484c-1.767-12.406-11.665-22.305-24.071-24.071l-6.485-.923c.356-.363.713-.725 1.073-1.084 12.544-12.545 26.295-22.217 38.721-27.234 9.918-4.006 18.079-4.498 21.29-1.285 3.273 3.272 2.709 11.605-1.472 21.747-1.579 3.829.245 8.214 4.075 9.792 3.827 1.58 8.213-.246 9.792-4.075 6.828-16.568 6.194-30.09-1.79-38.073zm-91.76 101.234c-3.364.097-5.903-.621-7.377-2.096-1.463-1.462-2.171-4.037-2.09-7.376 4.622 1.201 8.268 4.848 9.467 9.472zm-25.997 3.313c0-2.528.714-4.893 1.952-6.903 1.001 5.734 3.551 9.591 6.061 12.101 3.324 3.324 7.416 5.284 12.048 6.09-1.999 1.218-4.345 1.92-6.852 1.92-7.283.001-13.209-5.925-13.209-13.208z"/><path d="m112.959 289.944c-5.102-5.101-11.884-7.91-19.098-7.91s-13.996 2.81-19.099 7.911l-19.311 19.312c-2.929 2.93-2.929 7.678 0 10.607l55.177 55.177c2.928 2.926 7.677 2.929 10.607-.001l19.312-19.312c10.53-10.53 10.53-27.665 0-38.195-5.414-5.415-12.575-8.045-19.686-7.891.165-7.418-2.652-14.448-7.902-19.698zm-27.588 10.607c4.682-4.682 12.299-4.682 16.98 0 4.693 4.691 4.694 12.288.001 16.981 0 0 0 0-.001 0l-14.008 14.009-16.981-16.981zm44.57 27.589c4.693 4.691 4.694 12.287 0 16.981l-14.008 14.009-16.982-16.982 14.008-14.008h-.001c4.683-4.681 12.302-4.683 16.983 0z"/><path d="m138.218 226.491-33.107 33.105c-2.926 2.928-2.929 7.677.001 10.607 33.814 33.813 21.363 21.362 55.176 55.176 2.927 2.927 7.676 2.93 10.607.001l33.106-33.106c2.929-2.93 2.929-7.678 0-10.607-2.93-2.928-7.678-2.928-10.607 0l-27.803 27.804-16.981-16.982 27.803-27.802c2.929-2.93 2.929-7.678 0-10.607-2.93-2.928-7.678-2.928-10.607 0l-27.802 27.802-16.982-16.981 27.803-27.802c2.93-2.929 2.93-7.678.001-10.606s-7.679-2.93-10.608-.002z"/><path d="m261.091 359.971 13.794 13.795c2.928 2.928 7.677 2.931 10.606.001 2.93-2.929 2.93-7.678.001-10.606l-13.794-13.796c-5.414-5.414-12.575-8.044-19.686-7.891.164-7.418-2.654-14.447-7.903-19.697-10.531-10.529-27.664-10.529-38.195 0l-19.312 19.312c-2.929 2.93-2.929 7.678 0 10.606 34.834 34.835 20.438 20.44 55.178 55.178 2.928 2.928 7.677 2.929 10.606-.001 2.929-2.929 2.929-7.677-.001-10.606l-22.285-22.284 14.008-14.009c4.683-4.684 12.302-4.683 16.983-.002zm-44.569-27.587c4.691-4.693 12.287-4.694 16.981 0 4.692 4.692 4.692 12.288 0 16.98 0 0-.001 0-.001.001l-14.008 14.009-16.981-16.982z"/><path d="m174.081 190.626-5.518 5.518c-10.529 10.53-10.529 27.664.001 38.196 10.531 10.529 27.666 10.532 38.195-.001l5.518-5.518c4.681-4.683 12.298-4.682 16.98-.001 4.682 4.683 4.683 12.301 0 16.982l-5.518 5.518c-4.682 4.682-12.299 4.682-16.98 0-2.93-2.928-7.678-2.928-10.607 0-2.929 2.93-2.929 7.678 0 10.607 10.532 10.53 27.664 10.53 38.195 0l5.518-5.518c10.529-10.53 10.529-27.664 0-38.196-10.531-10.529-27.664-10.53-38.195.001l-5.518 5.518c-4.682 4.684-12.3 4.681-16.981.001-4.682-4.683-4.683-12.301 0-16.982l5.517-5.518c4.684-4.682 12.303-4.682 16.982 0 2.93 2.928 7.678 2.928 10.607 0 2.929-2.93 2.929-7.678 0-10.607-10.53-10.53-27.664-10.53-38.196 0z"/><path d="m192.12 456.532c2.931 2.929 7.678 2.928 10.607 0 2.929-2.93 2.929-7.678 0-10.607l-22.286-22.286 14.008-14.007h.001c10.555-10.557 10.555-27.638 0-38.195-10.557-10.555-27.639-10.555-38.196 0l-19.312 19.312c-2.929 2.93-2.929 7.678 0 10.607zm-25.258-74.489c4.683-4.684 12.301-4.682 16.981 0 4.683 4.682 4.683 12.299.001 16.98l-14.01 14.009-16.981-16.981z"/><path d="m248.141 127.173c-2.928-2.928-7.677-2.929-10.606.001-.205.205-24.683 24.684-33.105 33.106-2.929 2.929-2.929 7.677.001 10.606 2.928 2.928 7.677 2.929 10.606-.001l11.249-11.249 49.873 49.873c2.931 2.929 7.678 2.928 10.607 0 2.929-2.93 2.929-7.678 0-10.607l-49.873-49.873 11.249-11.249c2.928-2.929 2.928-7.677-.001-10.607z"/><path d="m275.734 251.957c-12.078 12.078-12.081 31.632 0 43.713l22.071 22.071c12.078 12.078 31.632 12.081 43.712-.001 12.082-12.08 12.082-31.63.001-43.713-2.93-2.928-7.678-2.928-10.607 0-2.929 2.93-2.929 7.678 0 10.607 6.204 6.203 6.204 16.296 0 22.499-6.201 6.203-16.295 6.203-22.498 0l-22.071-22.071c-6.218-6.216-6.219-16.279.001-22.499 6.219-6.219 16.279-6.218 22.497 0 2.929 2.929 7.678 2.93 10.606.001 2.93-2.929 2.93-7.678.001-10.606-12.081-12.082-31.631-12.081-43.713-.001z"/><path d="m352.553 196.353c2.929-2.93 2.929-7.678 0-10.607-2.93-2.928-7.678-2.928-10.607 0l-33.105 33.105c-2.929 2.93-2.929 7.678 0 10.606 52.065 52.068 2.905 2.907 55.176 55.178 2.93 2.928 7.678 2.929 10.606 0l33.106-33.105c2.93-2.93 2.93-7.678.001-10.606-2.929-2.93-7.677-2.929-10.607-.001l-27.803 27.803-16.981-16.981 27.804-27.803c2.929-2.93 2.929-7.678 0-10.607-2.93-2.928-7.678-2.928-10.607 0l-27.803 27.803-16.981-16.982z"/><path d="m304.167 355.091c2.929-2.93 2.929-7.678 0-10.607l-55.176-55.176c-2.93-2.928-7.678-2.928-10.607 0-2.929 2.93-2.929 7.678 0 10.607l55.176 55.176c2.93 2.929 7.677 2.928 10.607 0z"/></g></svg>