<svg id="Layer_1" enable-background="new 0 0 500 500" viewBox="0 0 500 500" xmlns="http://www.w3.org/2000/svg"><path clip-rule="evenodd" d="m120.095 422.609 46.175-79.977c.129-.224.325-.368.577-.424s.49-.009.702.139c8.836 6.16 20.346 7.058 30.243 2.017 2.029-1.033 3.01-1.912 4.638-1.238s1.7 1.991 2.404 4.155c3.996 12.293 15.191 20.427 28.117 20.427h4.64c.327 0 .607.162.771.445.163.283.164.607 0 .89l-52.762 91.385c-.184.318-.523.485-.887.437s-.648-.297-.743-.652l-13.057-48.728c-.127-.474-.616-.756-1.09-.629l-48.727 13.056c-.355.095-.713-.026-.936-.318-.224-.29-.249-.666-.065-.985zm117.82-177.199 62.464-53.988c.27-.234.63-.284.955-.135.324.15.519.456.517.814-.043 7.098-2.279 13.871-6.837 20.301-.006.009-.012.016-.018.025l-52.793 69.276c-.16.209-.378.328-.641.348s-.497-.065-.686-.248l-40.604-39.305c-.284-.275-.354-.685-.177-1.038l7.738-15.437c.121-.241.32-.4.581-.465.262-.065.512-.017.732.14l27.67 19.764c.338.241.784.22 1.099-.052zm175.359-30.759c2.969-17.047 8.642-31.815 23.05-37.911.031-.013.058-.023.09-.032l4.161-1.253c.382-.115.634-.453.634-.852s-.252-.737-.634-.852l-4.161-1.253c-.032-.01-.059-.019-.09-.033-14.408-6.096-20.081-20.864-23.05-37.911-.075-.43-.44-.737-.876-.737-.437 0-.802.307-.877.737-2.969 17.047-8.643 31.815-23.051 37.911-.031.013-.058.022-.091.032l-4.161 1.253c-.382.115-.634.453-.634.852s.252.737.634.852l4.161 1.253c.032.01.06.019.091.032 14.408 6.095 20.082 20.864 23.051 37.911.075.43.441.738.877.737.436.001.801-.307.876-.736zm-328.679 99.928c2.626-14.647 7.623-27.281 20.047-32.541.031-.013.058-.022.091-.032l3.279-.987c.382-.115.634-.453.634-.852s-.252-.737-.634-.852l-3.279-.987c-.032-.01-.06-.019-.091-.033-12.424-5.26-17.422-17.894-20.047-32.541-.077-.428-.441-.733-.876-.733s-.799.305-.876.733c-2.626 14.647-7.624 27.281-20.048 32.541-.031.013-.058.023-.091.033l-3.279.987c-.382.115-.634.453-.634.852s.251.737.633.852l3.279.987c.032.01.06.019.091.032 12.425 5.259 17.422 17.894 20.048 32.541.077.428.441.733.876.733s.8-.305.877-.733zm67.274-205.517c2.968-14.734 8.641-27.5 23.058-32.766.028-.01.053-.018.082-.025l3.684-.958c.398-.103.666-.45.666-.861s-.268-.758-.666-.861l-3.684-.958c-.029-.008-.053-.015-.082-.025-14.418-5.267-20.09-18.033-23.058-32.767-.085-.42-.444-.714-.872-.714s-.788.294-.873.714c-2.968 14.734-8.642 27.5-23.059 32.767-.028.01-.053.018-.082.025l-3.685.958c-.398.103-.666.451-.666.861 0 .411.268.758.666.861l3.685.958c.029.008.053.015.082.025 14.417 5.266 20.091 18.033 23.059 32.766.084.42.444.715.873.714s.787-.294.872-.714zm64.885 5.758c-3.096 9.528-13.853 13.983-22.78 9.435l-2.243-1.143c-6.365-3.243-13.773-2.07-18.824 2.981l-24.399 24.399c-5.051 5.051-6.225 12.46-2.981 18.825l1.143 2.243c4.548 8.926.092 19.684-9.436 22.779l-2.394.778c-6.794 2.208-11.203 8.275-11.203 15.419v34.506c0 7.144 4.408 13.211 11.203 15.419l2.395.778c9.527 3.096 13.984 13.853 9.435 22.779l-1.143 2.243c-3.243 6.365-2.07 13.773 2.981 18.824l24.399 24.399c5.051 5.051 12.459 6.225 18.824 2.981l2.244-1.143c8.927-4.548 19.683-.093 22.779 9.435l.778 2.394c2.207 6.794 8.276 11.203 15.419 11.203h34.505c7.144 0 13.212-4.409 15.419-11.203l.778-2.394c3.096-9.528 13.853-13.983 22.779-9.435l2.244 1.143c6.365 3.243 13.773 2.07 18.824-2.981l24.4-24.399c5.051-5.051 6.224-12.459 2.981-18.824l-1.143-2.243c-4.548-8.926-.092-19.683 9.435-22.779l2.395-.778c6.794-2.207 11.203-8.275 11.203-15.419v-34.506c0-7.144-4.409-13.211-11.203-15.419l-2.395-.778c-9.527-3.095-13.983-13.855-9.435-22.78l1.143-2.243c3.243-6.365 2.07-13.773-2.981-18.825l-24.399-24.399c-5.052-5.051-12.459-6.224-18.824-2.981l-2.243 1.143c-8.926 4.548-19.683.093-22.779-9.435l-.778-2.395c-2.208-6.794-8.275-11.203-15.419-11.203h-34.506c-7.144 0-13.212 4.409-15.419 11.203zm33.45 23.473c-49.428 0-89.496 40.069-89.496 89.496s40.069 89.496 89.496 89.496 89.496-40.069 89.496-89.496-40.069-89.496-89.496-89.496zm130.108 284.316c.184.318.159.695-.065.987s-.581.413-.936.318l-48.727-13.056c-.474-.127-.963.156-1.09.629l-13.057 48.728c-.095.355-.379.604-.743.652s-.703-.119-.887-.437l-52.762-91.385c-.164-.283-.163-.607 0-.89.164-.283.444-.445.771-.445h4.64c12.927 0 24.124-8.135 28.118-20.43.704-2.168.774-3.477 2.403-4.152s2.609.204 4.638 1.238c9.897 5.042 21.406 4.143 30.242-2.017.212-.148.45-.195.703-.139.252.056.448.2.577.424z" fill-rule="evenodd"/></svg>