<svg clip-rule="evenodd" fill-rule="evenodd" height="512" image-rendering="optimizeQuality" shape-rendering="geometricPrecision" text-rendering="geometricPrecision" viewBox="0 0 43.3492 43.3492" width="512" xmlns="http://www.w3.org/2000/svg"><g id="Layer_x0020_1"><g id="_553428304"><path id="_553428040" d="m18.7949 40.4666c-10.3656 0-18.7919-8.4264-18.7919-18.792s8.4263-18.792 18.7919-18.792c5.2181 0 10.0836 2.0802 13.6798 5.8879.1819.205.1618.4346.0455.6015l1.103 1.4416c.2102-.1071.4835-.085.6498.178 2.1859 3.1379 3.3142 6.8399 3.3142 10.6829-.0002 10.3657-8.4266 18.7921-18.7923 18.7921zm0-3.8782c-8.2149 0-14.9137-6.6989-14.9137-14.9138s6.6988-14.9138 14.9137-14.9138c3.9135 0 7.6156 1.516 10.4009 4.2309.2239.221.189.4847.0433.6621l1.3963 1.7329c.213-.1246.5074-.1126.6757.1435 6.3384 9.6455-.5403 23.0582-12.5162 23.0582z" fill="#545454"/><path id="_553427992" d="m19.2886 31.335c-.2115 0-.3878-.141-.4583-.3173-.0352-.0705-3.0674-7.8976-7.7566-10.8592-.9167-.5641-1.6217-1.1635-1.3397-2.5033.282-1.3045 1.1635-2.0449 2.75-2.3975 2.8205-.5994 5.8526 3.7725 6.9809 5.5707 3.9487-5.7469 11.8463-14.7728 23.3401-15.8305.5545-.065.7595.7569.2468.9872-.1763.0705-16.6062 7.5804-23.2697 25.0679-.1057.1762-.282.282-.4935.282z" fill="#00b42c"/></g></g></svg>