<svg id="OBJECT" height="512" viewBox="0 0 32 32" width="512" xmlns="http://www.w3.org/2000/svg"><g fill="#011839"><path d="m25.5 10.5a9.5 9.5 0 1 0 -15 7.74v2.76h-.5a1 1 0 0 0 0 2h12a1 1 0 0 0 0-2h-.5v-2.76a9.47 9.47 0 0 0 4-7.74zm-13 10.5v-3.3a1 1 0 0 0 -.47-.85 7.5 7.5 0 1 1 7.94 0 1 1 0 0 0 -.47.85v3.3z"/><path d="m30 10h-2a1 1 0 0 0 0 2h2a1 1 0 0 0 0-2z"/><path d="m27 7.5a1 1 0 0 0 .5-.13l1.73-1a1 1 0 0 0 -1-1.74l-1.73 1a1 1 0 0 0 .5 1.87z"/><path d="m29.23 15.63-1.73-1a1 1 0 0 0 -1 1.74l1.73 1a1 1 0 1 0 1-1.74z"/><path d="m5 11a1 1 0 0 0 -1-1h-2a1 1 0 0 0 0 2h2a1 1 0 0 0 1-1z"/><path d="m5.5 5.63-1.73-1a1 1 0 1 0 -1 1.74l1.73 1a1 1 0 0 0 1-1.74z"/><path d="m4.5 14.63-1.73 1a1 1 0 0 0 1 1.74l1.73-1a1 1 0 1 0 -1-1.74z"/></g><path d="m12.5 26a3 3 0 0 0 1.13 2.34l1.37 1.14v.52a1 1 0 0 0 1 1 1 1 0 0 0 1-1v-.52l1.37-1.1a3 3 0 0 0 1.13-2.38v-1h-7z" fill="#7738c8"/><path d="m15.17 13.75a1 1 0 0 1 -.72-.31l-1.67-1.76a1 1 0 0 1 1.44-1.38l.95 1 2.61-2.74a1 1 0 1 1 1.44 1.38l-3.32 3.5a1 1 0 0 1 -.73.31z" fill="#7738c8"/></svg>