<svg id="Capa_1" enable-background="new 0 0 512 512" height="512" viewBox="0 0 512 512" width="512" xmlns="http://www.w3.org/2000/svg"><g><path d="m512 256c0-69.97-56.924-126.894-126.894-126.894-33.895 0-65.76 13.199-89.727 37.167l-129.108 129.106c-10.517 10.518-24.502 16.311-39.378 16.311-30.708 0-55.69-24.982-55.69-55.69s24.982-55.69 55.69-55.69c14.876 0 28.861 5.793 39.379 16.312l18.166 18.165 50.349-50.348-18.167-18.166c-23.967-23.968-55.832-37.167-89.727-37.167-69.969 0-126.893 56.924-126.893 126.894s56.924 126.894 126.894 126.894c33.895 0 65.76-13.199 89.727-37.167l129.108-129.107c10.517-10.518 24.502-16.311 39.378-16.311 30.708 0 55.69 24.982 55.69 55.69s-24.982 55.69-55.69 55.69c-14.877 0-28.862-5.793-39.379-16.313l-18.166-18.165-50.349 50.348 18.166 18.166c23.968 23.967 55.833 37.167 89.728 37.167 69.969.002 126.893-56.922 126.893-126.892z"/></g></svg>