<svg xmlns="http://www.w3.org/2000/svg" version="1.1" xmlns:xlink="http://www.w3.org/1999/xlink" width="512" height="512" x="0" y="0" viewBox="0 0 24 24" style="enable-background:new 0 0 512 512" xml:space="preserve" class=""><g><g data-name="Layer 2"><path fill="#02c000" d="M11.5 14.25a.746.746 0 0 1-.498-.19l-2.25-2a.75.75 0 0 1 .996-1.12l1.704 1.514 3.251-3.467a.75.75 0 0 1 1.094 1.026l-3.75 4a.748.748 0 0 1-.547.237z" opacity="1" data-original="#7fbde7"></path><path fill="#000000" d="M12 22.608a1.746 1.746 0 0 1-.85-.222l-3.37-1.873a10.756 10.756 0 0 1-5.53-9.397V5.921a1.747 1.747 0 0 1 1.57-1.74 17.376 17.376 0 0 0 3.93-.888 17.314 17.314 0 0 0 3.335-1.597 1.753 1.753 0 0 1 1.83 0 17.306 17.306 0 0 0 3.334 1.597 17.392 17.392 0 0 0 3.933.889A1.747 1.747 0 0 1 21.75 5.92v5.195a10.756 10.756 0 0 1-5.53 9.397l-3.37 1.873a1.74 1.74 0 0 1-.85.222zm0-19.671a.231.231 0 0 0-.124.035h-.001a18.84 18.84 0 0 1-3.626 1.735 18.862 18.862 0 0 1-4.272.967.246.246 0 0 0-.227.247v5.195a9.256 9.256 0 0 0 4.758 8.086l3.37 1.873a.255.255 0 0 0 .242 0l3.372-1.873a9.256 9.256 0 0 0 4.758-8.086V5.921a.246.246 0 0 0-.226-.247 18.878 18.878 0 0 1-4.274-.967 18.86 18.86 0 0 1-3.625-1.735.237.237 0 0 0-.125-.035z" opacity="1" data-original="#232323" class=""></path></g></g></svg>