<svg id="OBJECT" height="512" viewBox="0 0 32 32" width="512" xmlns="http://www.w3.org/2000/svg"><path d="m16 31a12 12 0 0 1 -12-12v-.5a7.75 7.75 0 0 1 .91-3.5 13.77 13.77 0 0 0 1.33-6.08 1 1 0 0 1 .54-.92 1 1 0 0 1 1.07.1 7.64 7.64 0 0 1 2.33 3.53 21.89 21.89 0 0 0 -.11-2.55v-.17a7.11 7.11 0 0 1 1.88-5.46 7.5 7.5 0 0 1 5.5-2.45h1.35a1 1 0 0 1 .93.64 1 1 0 0 1 -.25 1.1 3.52 3.52 0 0 0 -1.35 2.92 4.26 4.26 0 0 0 2.1 3.05 8.49 8.49 0 0 1 2.36 2.29c-.05-1.26-.17-2.28-.17-2.3a1 1 0 0 1 1.48-1 8 8 0 0 1 3.48 5 15.46 15.46 0 0 1 .62 4.44v1.86a12 12 0 0 1 -12 12zm-8-19.37a14.93 14.93 0 0 1 -1.31 4.27 5.66 5.66 0 0 0 -.69 2.6v.5a10 10 0 1 0 20 0v-1.86a13.53 13.53 0 0 0 -.53-3.88 9.83 9.83 0 0 0 -.87-2v.49a1.78 1.78 0 0 1 -3.28 1 7.31 7.31 0 0 0 -2.16-2.3 6.23 6.23 0 0 1 -3-4.56 4.91 4.91 0 0 1 .57-2.79 5.5 5.5 0 0 0 -3.33 1.68 5.12 5.12 0 0 0 -1.35 3.94v.14a15.78 15.78 0 0 1 0 3 1.93 1.93 0 0 1 -1.7 1.76 2 2 0 0 1 -2.05-1.34c-.09-.22-.17-.44-.3-.65z" fill="#011839"/><path d="m16 13a7 7 0 1 0 7 7 7 7 0 0 0 -7-7zm1.29 9.71-2-2a1 1 0 0 1 -.29-.71v-2a1 1 0 0 1 1-1 1 1 0 0 1 1 1v1.59l1.71 1.7a1 1 0 0 1 0 1.42 1 1 0 0 1 -1.42 0z" fill="#7738c8"/></svg>