<svg id="Layer_1" height="512" viewBox="0 0 90 90" width="512" xmlns="http://www.w3.org/2000/svg"><path clip-rule="evenodd" d="m76.676 32.265 1.329-1.51c1.27-1.442 1.05-3.736-.539-5.179-1.588-1.447-3.92-1.478-5.189-.036l-1.327 1.511z" fill="#808080" fill-rule="evenodd"/><path clip-rule="evenodd" d="m53.736 17.404h5.571v4.98h-5.571z" fill="#ccc" fill-rule="evenodd"/><path clip-rule="evenodd" d="m51.661 12.304h9.726c1.133 0 2.048.915 2.048 2.055v2.35c0 1.14-.915 2.055-2.048 2.055h-9.726c-1.134 0-2.048-.915-2.048-2.055v-2.35c0-1.14.914-2.055 2.048-2.055z" fill="#808080" fill-rule="evenodd"/><path clip-rule="evenodd" d="m56.521 22.035c15.322 0 27.743 12.442 27.743 27.789 0 15.349-12.421 27.792-27.743 27.792-7.566 0-12.577-2.508-22.846-6l2.859-2.879c1.284-1.296.025-3.657-1.871-2.925-8.623 3.317-13.649-.225-16.1-8.226 3.709 2.357 8.831.732 10.436-.877 2.487-2.489 1.516-5.368-4.082-3.518-7.179 2.367-14.747-1.776-18.383-12.023 10.984 5.518 11.793-5.838 23.395-2.812-.987-3.981-3.663-5.294-9.792-5.137 6.078-7.66 14.918-3.694 24.241-8.381 3.667-1.795 7.785-2.803 12.143-2.803z" fill="#fd6b65" fill-rule="evenodd"/><path clip-rule="evenodd" d="m76.415 49.823c0 11.006-8.904 19.927-19.894 19.927-5.277 0-10.337-2.097-14.068-5.837-3.73-3.736-5.826-8.805-5.826-14.09 0-5.288 2.095-10.351 5.826-14.093 3.731-3.736 8.791-5.836 14.068-5.836 10.99 0 19.894 8.925 19.894 19.929z" fill="#f2f2f2" fill-rule="evenodd"/><g fill="#808080"><path d="m56.223 32.7c-.574.009-1.035.486-1.029 1.061v1.505c0 1.39 2.09 1.39 2.09 0v-1.505c.01-.591-.47-1.071-1.061-1.061z"/><path d="m56.223 63.327c-.574.005-1.035.48-1.029 1.061v1.5c0 1.395 2.09 1.395 2.09 0v-1.5c.01-.59-.47-1.072-1.061-1.061z"/><path d="m70.777 48.779c-1.39 0-1.39 2.091 0 2.091h1.5c1.389 0 1.389-2.091 0-2.091z"/><path d="m40.196 48.779c-1.389 0-1.389 2.091 0 2.091h1.505c1.39 0 1.39-2.091 0-2.091z"/><path d="m66.507 59.067c-.94 0-1.4 1.14-.727 1.792l1.056 1.062c.403.435 1.086.443 1.505.027.417-.419.403-1.098-.032-1.5l-1.056-1.061c-.197-.204-.463-.32-.746-.32z"/><path d="m44.884 37.413c-.937 0-1.395 1.14-.726 1.793l1.061 1.056c.401.433 1.086.45 1.505.03.417-.417.401-1.102-.032-1.505l-1.056-1.055c-.198-.204-.469-.319-.752-.319z"/><path d="m67.558 37.413c-.271.006-.534.121-.721.319l-1.056 1.055c-.433.403-.449 1.088-.032 1.505.418.419 1.104.403 1.505-.03l1.056-1.056c.685-.664.199-1.824-.752-1.793z"/><path d="m45.939 59.067c-.271.011-.534.12-.721.32l-1.061 1.061c-.434.402-.444 1.081-.027 1.5.418.417 1.102.408 1.505-.027l1.056-1.062c.685-.662.2-1.817-.752-1.792z"/><path clip-rule="evenodd" d="m56.521 48.261c.873 0 1.563.686 1.563 1.563 0 .879-.689 1.563-1.563 1.563-.872 0-1.563-.684-1.563-1.563 0-.878.691-1.563 1.563-1.563zm7.049-6.87c-.266.005-.527.115-.716.308l-4.812 4.824c-.466-.219-.978-.35-1.521-.35-2.001 0-3.642 1.651-3.642 3.651 0 2.001 1.641 3.654 3.642 3.654s3.643-1.653 3.643-3.654c0-.705-.21-1.357-.559-1.917l4.723-4.734c.669-.664.188-1.804-.758-1.782z" fill-rule="evenodd"/></g></svg>