<svg xmlns="http://www.w3.org/2000/svg" width="39" height="38" fill="none"><mask id="a" width="38" height="38" x="0" y="0" maskUnits="userSpaceOnUse" style="mask-type:alpha"><path fill="#FEEF7C" fill-rule="evenodd" d="M28.1 4.93A16.05 16.05 0 0 0 4.97 27.15l4.84 5.04A16.05 16.05 0 0 0 32.95 9.98l-4.84-5.05Z" clip-rule="evenodd"/></mask><g mask="url(#a)"><path fill="#FEEF7C" fill-rule="evenodd" d="M29.2 8.56c3.1 2.5 4.62 5.73 4.9 9.64-.24 7.55-3.8 12.4-9.92 14.48-7.07 2.13-11.55.41-15.88-4l-.72 4.48c7.53 4.96 18.48 7.42 25.41.58A17.93 17.93 0 0 0 31.73 7.3L29.2 8.56Z" clip-rule="evenodd"/></g><mask id="b" width="38" height="38" x="1" y="0" maskUnits="userSpaceOnUse" style="mask-type:alpha"><path fill="#5CD3CB" fill-rule="evenodd" d="M28.98 5.8A16.05 16.05 0 0 0 5.83 28.03l4.85 5.05a16.05 16.05 0 0 0 23.15-22.22l-4.85-5.04Z" clip-rule="evenodd"/></mask><g mask="url(#b)"><path fill="#5CD3CB" fill-rule="evenodd" d="m6.3 30.2 1.94-1.7C3.82 22.23 3.64 13.05 9.7 8a15.87 15.87 0 0 1 20.52.58l1.1-1.94a18.82 18.82 0 0 0-20.26-5.06C-2.8 7.02-.66 25.26 6.3 30.19Z" clip-rule="evenodd"/></g><path fill="#000" d="M3.35 19.05a16.07 16.07 0 1 0 32.15 0 16.07 16.07 0 0 0-32.15 0Zm11.19 2.9a1.32 1.32 0 0 0-.47-1.45L8.96 16.7a.66.66 0 0 1 .4-1.2h6.1c.57 0 1.07-.36 1.25-.9l2.08-6.26a.66.66 0 0 1 1.25 0c.64 1.92 1.6 4.81 2.1 6.27.17.54.68.9 1.24.9h6.13a.66.66 0 0 1 .4 1.18l-5.11 3.85c-.45.34-.63.92-.47 1.45l2 6.32a.66.66 0 0 1-1.02.72l-5.1-3.9a1.32 1.32 0 0 0-1.6 0c-1.2.92-3.48 2.68-5.04 3.9a.66.66 0 0 1-1.03-.73l2-6.33Z"/></svg>