<svg id="Layer_1" viewBox="0 0 32 32" xmlns="http://www.w3.org/2000/svg" data-name="Layer 1"><path d="m14 12.16a.49.49 0 0 0 -.7 0 .5.5 0 0 0 0 .71l4.33 4-4.33 4a.5.5 0 0 0 0 .71.52.52 0 0 0 .36.16.48.48 0 0 0 .34-.14l4.73-4.36a.51.51 0 0 0 0-.74z"/><path d="m19.62 8.2h-8.22a4.46 4.46 0 0 0 -4.4 4.45v8.22a4.45 4.45 0 0 0 4.45 4.45h8.22a4.46 4.46 0 0 0 4.46-4.45v-8.22a4.46 4.46 0 0 0 -4.51-4.45zm3.46 12.67a3.45 3.45 0 0 1 -3.46 3.45h-8.22a3.45 3.45 0 0 1 -3.4-3.45v-8.22a3.46 3.46 0 0 1 3.4-3.45h8.22a3.46 3.46 0 0 1 3.46 3.45z"/></svg>