<svg width="42" height="42" viewBox="0 0 42 42" fill="none" xmlns="http://www.w3.org/2000/svg">
<g clip-path="url(#clip0_4917_25769)">
<path d="M11.1088 41.3178C10.7193 41.3178 10.3617 41.1838 10.102 40.916C9.80935 40.6481 9.64648 40.2803 9.64648 39.8444C9.64648 39.4414 9.77746 39.0725 10.0371 38.7717L15.4924 32.8758C15.7862 32.5738 16.1427 32.407 16.5652 32.407C16.9547 32.407 17.3123 32.5409 17.572 32.8088C17.8647 33.0767 18.0276 33.4786 18.0276 33.8804C18.0276 34.2822 17.8966 34.6523 17.6369 34.9531L12.1805 40.849C11.8878 41.1509 11.5313 41.3178 11.1088 41.3178Z" fill="url(#paint0_linear_4917_25769)"/>
<path d="M2.07496 32.4774C1.68546 32.4774 1.32785 32.3106 1.03516 32.0427C0.743603 31.7748 0.61377 31.373 0.61377 30.97C0.61377 30.5682 0.775492 30.1992 1.03516 29.8984L6.16699 24.5712C6.42666 24.2704 6.81616 24.1365 7.2068 24.1365C7.5963 24.1365 7.95277 24.3033 8.24546 24.5712C8.53816 24.8391 8.66685 25.241 8.66685 25.6439C8.66685 26.0458 8.50513 26.4136 8.24546 26.7155L3.11363 32.0438C2.85396 32.3117 2.46446 32.4774 2.07496 32.4774Z" fill="url(#paint1_linear_4917_25769)"/>
<path d="M2.58733 41.2339C2.19555 41.2339 1.8368 41.0659 1.54297 40.7969C1.24914 40.5278 1.11816 40.1249 1.11816 39.7219C1.11816 39.3189 1.24914 38.95 1.54297 38.6469L11.859 27.8631C12.1529 27.5612 12.5116 27.4272 12.9034 27.4272C13.2952 27.4272 13.6551 27.5952 13.9477 27.8631C14.5354 28.4341 14.5354 29.4081 13.9808 30.0131L3.66472 40.7969C3.37728 41.0782 2.99017 41.2352 2.58733 41.2339Z" fill="url(#paint2_linear_4917_25769)"/>
<path d="M8.82293 19.2303C12.1519 16.2403 22.4349 7.80855 33.6644 6.63255C33.7393 6.62544 33.8148 6.63579 33.8849 6.66276C33.9551 6.68974 34.018 6.73261 34.0687 6.78799C34.1194 6.84336 34.1565 6.90973 34.1771 6.98184C34.1976 7.05396 34.2011 7.12985 34.1871 7.20352C33.7953 10.0255 31.6075 21.4472 21.9133 31.626C21.8078 31.7367 21.6759 31.8189 21.5298 31.8649C21.3837 31.9109 21.2282 31.9191 21.0781 31.8888C20.9279 31.8585 20.7879 31.7907 20.6713 31.6917C20.5546 31.5927 20.4651 31.4658 20.4111 31.3229L18.1903 26.0831L15.4171 26.8209C15.2894 26.8521 15.1558 26.8487 15.0298 26.8113C14.9038 26.7739 14.7902 26.7038 14.7004 26.6081C14.6107 26.5124 14.5481 26.3946 14.5191 26.2668C14.4902 26.1391 14.4958 26.0059 14.5356 25.881L15.2861 23.2271L9.08374 20.8093C8.46304 20.5731 8.30018 19.7002 8.82179 19.2303H8.82293Z" fill="url(#paint3_linear_4917_25769)"/>
<path d="M39.8351 29.1402L28.7366 29.3422C28.3448 29.3422 27.9849 29.5432 27.7571 29.9132C26.6467 31.7601 22.926 37.8069 20.0195 40.4609C19.3351 41.1 18.2896 40.932 17.7998 40.1249C17.7207 39.9924 17.6448 39.858 17.5721 39.7219C16.8864 38.1441 16.3648 37.2019 15.4503 35.59C14.6668 34.2131 13.0996 32.2641 12.1851 31.0892C11.0758 29.7112 8.72517 27.5612 7.51681 26.6883C5.26523 25.0083 3.17536 24.0343 1.67431 23.4974C0.59692 23.0933 0.303087 21.6494 1.15156 20.8435C3.60017 18.4574 7.77875 14.5276 10.3902 13.1836C10.782 12.9827 11.0098 12.5456 11.0098 12.1086L10.8139 1.32484C10.8139 0.451917 11.6635 -0.15311 12.4471 0.216944C14.7966 1.25786 19.2041 3.47478 21.7176 6.36484C22.0114 6.70084 22.4693 6.83478 22.8929 6.70084C24.7858 6.12873 30.1727 4.58381 35.3957 4.28186C36.1132 4.24781 36.7008 4.85284 36.6029 5.59181C36.3421 8.14586 35.6576 13.6535 34.4811 17.2826C34.3513 17.6515 34.4162 18.0545 34.677 18.3905C35.8193 19.8684 39.1825 24.3703 40.7815 27.3932C41.2393 28.1662 40.7166 29.1413 39.8362 29.1413L39.8351 29.1402Z" fill="url(#paint4_linear_4917_25769)"/>
<path d="M16.8535 26.4532L15.4163 26.8221C15.2885 26.8533 15.1546 26.85 15.0285 26.8126C14.9025 26.7751 14.7887 26.7048 14.6989 26.609C14.6091 26.5131 14.5465 26.3952 14.5177 26.2672C14.4888 26.1393 14.4947 26.006 14.5348 25.881L15.2864 23.2282L9.08403 20.8093C8.43031 20.5402 8.26745 19.6673 8.7902 19.1974C12.118 16.2063 22.4022 7.7745 33.6316 6.5985C33.7064 6.59159 33.7818 6.60207 33.8518 6.62913C33.9219 6.65619 33.9846 6.69909 34.0352 6.75444C34.0858 6.80979 34.1227 6.87609 34.1432 6.94811C34.1637 7.02013 34.1672 7.09591 34.1533 7.16948C33.7615 9.99142 31.5748 21.412 21.8794 31.5908C21.774 31.7016 21.6421 31.7838 21.4961 31.8299C21.3501 31.876 21.1947 31.8843 21.0445 31.8541C20.8944 31.8239 20.7544 31.7562 20.6377 31.6573C20.5209 31.5585 20.4313 31.4317 20.3773 31.2888L18.1576 26.0479L16.8524 26.452L16.8535 26.4532Z" fill="#FFFFFC"/>
<path d="M25.4051 18.5244C27.2444 18.5244 28.7353 16.9909 28.7353 15.0986C28.7353 13.2052 27.2444 11.6716 25.4051 11.6716C23.567 11.6716 22.0762 13.2052 22.0762 15.0986C22.0762 16.9909 23.567 18.5244 25.4051 18.5244Z" fill="url(#paint5_linear_4917_25769)"/>
</g>
<defs>
<linearGradient id="paint0_linear_4917_25769" x1="8.93126" y1="42.4858" x2="15.8123" y2="35.5626" gradientUnits="userSpaceOnUse">
<stop offset="0.188" stop-color="#25E2EA"/>
<stop offset="1" stop-color="#19A6D1"/>
</linearGradient>
<linearGradient id="paint1_linear_4917_25769" x1="-0.525119" y1="33.9906" x2="7.88371" y2="25.4924" gradientUnits="userSpaceOnUse">
<stop offset="0.396" stop-color="#E55EC4"/>
<stop offset="1" stop-color="#8225D0"/>
</linearGradient>
<linearGradient id="paint2_linear_4917_25769" x1="9.98897" y1="32.4536" x2="3.88683" y2="37.1135" gradientUnits="userSpaceOnUse">
<stop stop-color="#A443FD"/>
<stop offset="1" stop-color="#A959F3"/>
</linearGradient>
<linearGradient id="paint3_linear_4917_25769" x1="7.73187" y1="35.0223" x2="70.4568" y2="-38.453" gradientUnits="userSpaceOnUse">
<stop offset="0.102" stop-color="white" stop-opacity="0.7"/>
<stop offset="0.481" stop-color="white" stop-opacity="0"/>
</linearGradient>
<linearGradient id="paint4_linear_4917_25769" x1="39.7679" y1="2.56667" x2="9.74795" y2="27.2179" gradientUnits="userSpaceOnUse">
<stop offset="0.174" stop-color="#52BFCA"/>
<stop offset="0.916" stop-color="#7238DF"/>
</linearGradient>
<linearGradient id="paint5_linear_4917_25769" x1="36.4341" y1="1.67563" x2="12.1507" y2="29.5023" gradientUnits="userSpaceOnUse">
<stop stop-color="#52BFCA"/>
<stop offset="1" stop-color="#7238DF"/>
</linearGradient>
<clipPath id="clip0_4917_25769">
<rect width="42" height="42" fill="white"/>
</clipPath>
</defs>
</svg>
